<svg width="24" height="21" viewBox="0 0 24 21" fill="none" xmlns="http://www.w3.org/2000/svg">
<path d="M11.3546 5.18276C15.7105 3.45035 20.4742 4.81846 22.6373 6.91327C23.106 7.3671 23.5041 7.82755 23.845 8.28516C24.0394 7.21071 24.0552 6.1405 23.8681 5.1055C23.1847 1.32649 19.6195 -0.814387 16.4233 0.291488C13.2415 1.3924 12.0005 3.53209 12.0005 3.53209C12.0005 3.53209 10.7595 1.3924 7.57767 0.291488C4.38124 -0.814387 0.816032 1.32672 0.132804 5.1055C-0.371585 7.89441 0.583564 10.9392 2.61033 13.6298C3.03723 13.7732 3.48468 13.8809 3.9586 13.9431C6.79782 14.3163 7.81841 13.557 9.01784 13.0486C9.81423 12.7113 10.4134 13.0942 10.3843 13.3626C10.3392 13.7786 8.76931 14.4895 9.10596 14.6388C10.4351 15.2285 12.0718 15.2334 13.3053 14.18C14.838 12.8712 15.4114 13.7659 15.4114 13.7659C15.4114 13.7659 14.6502 15.7076 12.3581 16.6717C10.4457 17.4761 8.44187 17.6743 6.61071 17.4683C8.19003 18.5846 10.0035 19.5204 12.0005 20.1883C17.7099 18.2784 21.9276 14.1871 23.4145 9.9096C22.4072 8.91571 21.1716 8.29957 19.6988 8.07632C16.8674 7.64706 15.8322 8.38627 14.6228 8.87082C13.8198 9.19259 13.2285 8.79782 13.263 8.52991C13.3161 8.11483 14.8999 7.43514 14.5661 7.27898C13.249 6.66332 11.6125 6.62599 10.3585 7.65485C8.80025 8.93319 8.2446 8.02741 8.2446 8.02741C8.2446 8.02741 9.04383 6.10152 11.3546 5.18276ZM10.2709 10.5052H11.3709V9.40521H12.6296V10.5052H13.7296V11.7639H12.6296V12.8639H11.3709V11.7639H10.2709V10.5052Z" fill="url(#paint0_linear_13001_725)"/>
<path d="M10.2709 10.5052H11.3709V9.4052H12.6296V10.5052H13.7295V11.7639H12.6378C14.2597 12.5834 17.2383 13.8027 20.8177 14.3451C21.9956 12.9517 22.8813 11.4428 23.4143 9.90958C22.4069 8.91569 21.1713 8.29956 19.6986 8.0763C16.8672 7.64704 15.8319 8.38626 14.6226 8.8708C13.8196 9.19257 13.2282 8.7978 13.2627 8.5299C13.3159 8.11481 14.8997 7.43513 14.5659 7.27897C13.2488 6.66331 11.6123 6.62598 10.3583 7.65484C8.8 8.93317 8.24435 8.0274 8.24435 8.0274C8.24435 8.0274 9.04381 6.10127 11.3543 5.18227C15.7102 3.44987 20.4739 4.81798 22.637 6.91278C23.1057 7.36662 23.5038 7.82706 23.8447 8.28467C24.0392 7.21022 24.055 6.14002 23.8679 5.10502C23.1844 1.326 19.6192 -0.814876 16.423 0.290999C13.2412 1.39191 12.0002 3.53161 12.0002 3.53161C12.0002 3.53161 10.7592 1.39191 7.57742 0.290999C5.75194 -0.340727 3.80667 0.0883 2.34619 1.27521C3.03225 2.7442 3.83597 4.11679 6.12544 6.87735C7.98684 9.12217 10.2709 10.5052 10.2709 10.5052Z" fill="url(#paint1_linear_13001_725)"/>
<path opacity="0.31" d="M20.277 1.64954C17.2712 0.139443 14.169 2.48916 13.1851 3.72993C14.882 3.37249 16.3668 3.18916 18.2457 3.58393C21.0252 4.16794 22.0654 5.17152 23.3064 6.65421C23.0871 3.90688 21.3519 2.1896 20.277 1.64954Z" fill="url(#paint2_linear_13001_725)"/>
<defs>
<linearGradient id="paint0_linear_13001_725" x1="3.19887" y1="16.2137" x2="20.8347" y2="-1.42209" gradientUnits="userSpaceOnUse">
<stop stop-color="#0076C1"/>
<stop offset="0.0737" stop-color="#0B82C6"/>
<stop offset="0.2766" stop-color="#269ED3"/>
<stop offset="0.4546" stop-color="#36AFDA"/>
<stop offset="0.587" stop-color="#3CB5DD"/>
</linearGradient>
<linearGradient id="paint1_linear_13001_725" x1="3.13878" y1="16.2537" x2="20.8274" y2="-1.43491" gradientUnits="userSpaceOnUse">
<stop stop-color="#00A482"/>
<stop offset="1" stop-color="#79DD83"/>
</linearGradient>
<linearGradient id="paint2_linear_13001_725" x1="17.8608" y1="5.50734" x2="21.5288" y2="2.11317" gradientUnits="userSpaceOnUse">
<stop stop-color="#00A482"/>
<stop offset="1" stop-color="#79DD83"/>
</linearGradient>
</defs>
</svg>
